<svg width="101" height="15" viewBox="0 0 101 15" fill="none" xmlns="http://www.w3.org/2000/svg">
    <path
        d="M5.27 9.09C5.27 9.41 5.19 9.71667 5.03 10.01C4.87 10.2967 4.63333 10.5367 4.32 10.73C4.01333 10.9233 3.64333 11.0333 3.21 11.06V11.87H2.67V11.06C2.06333 11.0067 1.57 10.8133 1.19 10.48C0.81 10.14 0.616667 9.71 0.61 9.19H1.58C1.60667 9.47 1.71 9.71333 1.89 9.92C2.07667 10.1267 2.33667 10.2567 2.67 10.31V7.81C2.22333 7.69667 1.86333 7.58 1.59 7.46C1.31667 7.34 1.08333 7.15333 0.89 6.9C0.696667 6.64667 0.6 6.30667 0.6 5.88C0.6 5.34 0.786667 4.89333 1.16 4.54C1.54 4.18667 2.04333 3.99 2.67 3.95V3.12H3.21V3.95C3.77667 3.99667 4.23333 4.18 4.58 4.5C4.92667 4.81333 5.12667 5.22333 5.18 5.73H4.21C4.17667 5.49667 4.07333 5.28667 3.9 5.1C3.72667 4.90667 3.49667 4.78 3.21 4.72V7.16C3.65 7.27333 4.00667 7.39 4.28 7.51C4.56 7.62333 4.79333 7.80667 4.98 8.06C5.17333 8.31333 5.27 8.65667 5.27 9.09ZM1.53 5.83C1.53 6.15667 1.62667 6.40667 1.82 6.58C2.01333 6.75333 2.29667 6.89667 2.67 7.01V4.7C2.32333 4.73333 2.04667 4.84667 1.84 5.04C1.63333 5.22667 1.53 5.49 1.53 5.83ZM3.21 10.32C3.57 10.28 3.85 10.15 4.05 9.93C4.25667 9.71 4.36 9.44667 4.36 9.14C4.36 8.81333 4.26 8.56333 4.06 8.39C3.86 8.21 3.57667 8.06667 3.21 7.96V10.32ZM11.9507 4.56H8.4407V6.84C8.59404 6.62667 8.8207 6.45333 9.1207 6.32C9.4207 6.18 9.74404 6.11 10.0907 6.11C10.644 6.11 11.094 6.22667 11.4407 6.46C11.7874 6.68667 12.034 6.98333 12.1807 7.35C12.334 7.71 12.4107 8.09333 12.4107 8.5C12.4107 8.98 12.3207 9.41 12.1407 9.79C11.9607 10.17 11.684 10.47 11.3107 10.69C10.944 10.91 10.4874 11.02 9.9407 11.02C9.2407 11.02 8.67404 10.84 8.2407 10.48C7.80737 10.12 7.54404 9.64 7.4507 9.04H8.3407C8.42737 9.42 8.6107 9.71667 8.8907 9.93C9.1707 10.1433 9.52404 10.25 9.9507 10.25C10.4774 10.25 10.874 10.0933 11.1407 9.78C11.4074 9.46 11.5407 9.04 11.5407 8.52C11.5407 8 11.4074 7.6 11.1407 7.32C10.874 7.03333 10.4807 6.89 9.9607 6.89C9.60737 6.89 9.29737 6.97667 9.0307 7.15C8.7707 7.31667 8.5807 7.54667 8.4607 7.84H7.6007V3.76H11.9507V4.56ZM14.1 5.59C14.1467 4.97667 14.3833 4.49667 14.81 4.15C15.2367 3.80333 15.79 3.63 16.47 3.63C16.9233 3.63 17.3133 3.71333 17.64 3.88C17.9733 4.04 18.2233 4.26 18.39 4.54C18.5633 4.82 18.65 5.13667 18.65 5.49C18.65 5.90333 18.53 6.26 18.29 6.56C18.0567 6.86 17.75 7.05333 17.37 7.14V7.19C17.8033 7.29667 18.1467 7.50667 18.4 7.82C18.6533 8.13333 18.78 8.54333 18.78 9.05C18.78 9.43 18.6933 9.77333 18.52 10.08C18.3467 10.38 18.0867 10.6167 17.74 10.79C17.3933 10.9633 16.9767 11.05 16.49 11.05C15.7833 11.05 15.2033 10.8667 14.75 10.5C14.2967 10.1267 14.0433 9.6 13.99 8.92H14.87C14.9167 9.32 15.08 9.64667 15.36 9.9C15.64 10.1533 16.0133 10.28 16.48 10.28C16.9467 10.28 17.3 10.16 17.54 9.92C17.7867 9.67333 17.91 9.35667 17.91 8.97C17.91 8.47 17.7433 8.11 17.41 7.89C17.0767 7.67 16.5733 7.56 15.9 7.56H15.67V6.8H15.91C16.5233 6.79333 16.9867 6.69333 17.3 6.5C17.6133 6.3 17.77 5.99333 17.77 5.58C17.77 5.22667 17.6533 4.94333 17.42 4.73C17.1933 4.51667 16.8667 4.41 16.44 4.41C16.0267 4.41 15.6933 4.51667 15.44 4.73C15.1867 4.94333 15.0367 5.23 14.99 5.59H14.1ZM20.2887 9.39V8.7L23.7987 3.84H24.8887V8.6H25.8887V9.39H24.8887V11H23.9887V9.39H20.2887ZM24.0287 4.79L21.3387 8.6H24.0287V4.79ZM28.3877 9.74L27.2677 12.43H26.6577L27.3877 9.74H28.3877ZM29.7602 5.59C29.8068 4.97667 30.0435 4.49667 30.4702 4.15C30.8968 3.80333 31.4502 3.63 32.1302 3.63C32.5835 3.63 32.9735 3.71333 33.3002 3.88C33.6335 4.04 33.8835 4.26 34.0502 4.54C34.2235 4.82 34.3102 5.13667 34.3102 5.49C34.3102 5.90333 34.1902 6.26 33.9502 6.56C33.7168 6.86 33.4102 7.05333 33.0302 7.14V7.19C33.4635 7.29667 33.8068 7.50667 34.0602 7.82C34.3135 8.13333 34.4402 8.54333 34.4402 9.05C34.4402 9.43 34.3535 9.77333 34.1802 10.08C34.0068 10.38 33.7468 10.6167 33.4002 10.79C33.0535 10.9633 32.6368 11.05 32.1502 11.05C31.4435 11.05 30.8635 10.8667 30.4102 10.5C29.9568 10.1267 29.7035 9.6 29.6502 8.92H30.5302C30.5768 9.32 30.7402 9.64667 31.0202 9.9C31.3002 10.1533 31.6735 10.28 32.1402 10.28C32.6068 10.28 32.9602 10.16 33.2002 9.92C33.4468 9.67333 33.5702 9.35667 33.5702 8.97C33.5702 8.47 33.4035 8.11 33.0702 7.89C32.7368 7.67 32.2335 7.56 31.5602 7.56H31.3302V6.8H31.5702C32.1835 6.79333 32.6468 6.69333 32.9602 6.5C33.2735 6.3 33.4302 5.99333 33.4302 5.58C33.4302 5.22667 33.3135 4.94333 33.0802 4.73C32.8535 4.51667 32.5268 4.41 32.1002 4.41C31.6868 4.41 31.3535 4.51667 31.1002 4.73C30.8468 4.94333 30.6968 5.23 30.6502 5.59H29.7602ZM36.1488 5.59C36.1955 4.97667 36.4322 4.49667 36.8588 4.15C37.2855 3.80333 37.8388 3.63 38.5188 3.63C38.9722 3.63 39.3622 3.71333 39.6888 3.88C40.0222 4.04 40.2722 4.26 40.4388 4.54C40.6122 4.82 40.6988 5.13667 40.6988 5.49C40.6988 5.90333 40.5788 6.26 40.3388 6.56C40.1055 6.86 39.7988 7.05333 39.4188 7.14V7.19C39.8522 7.29667 40.1955 7.50667 40.4488 7.82C40.7022 8.13333 40.8288 8.54333 40.8288 9.05C40.8288 9.43 40.7422 9.77333 40.5688 10.08C40.3955 10.38 40.1355 10.6167 39.7888 10.79C39.4422 10.9633 39.0255 11.05 38.5388 11.05C37.8322 11.05 37.2522 10.8667 36.7988 10.5C36.3455 10.1267 36.0922 9.6 36.0388 8.92H36.9188C36.9655 9.32 37.1288 9.64667 37.4088 9.9C37.6888 10.1533 38.0622 10.28 38.5288 10.28C38.9955 10.28 39.3488 10.16 39.5888 9.92C39.8355 9.67333 39.9588 9.35667 39.9588 8.97C39.9588 8.47 39.7922 8.11 39.4588 7.89C39.1255 7.67 38.6222 7.56 37.9488 7.56H37.7188V6.8H37.9588C38.5722 6.79333 39.0355 6.69333 39.3488 6.5C39.6622 6.3 39.8188 5.99333 39.8188 5.58C39.8188 5.22667 39.7022 4.94333 39.4688 4.73C39.2422 4.51667 38.9155 4.41 38.4888 4.41C38.0755 4.41 37.7422 4.51667 37.4888 4.73C37.2355 4.94333 37.0855 5.23 37.0388 5.59H36.1488Z"
        fill="#9098B1" />
    <path d="M0 7.72H41.4388V8.22H0V7.72Z" fill="#9098B1" />
    <path
        d="M50.39 9.63C50.6167 9.45 50.72 9.36667 50.7 9.38C51.3533 8.84 51.8667 8.39667 52.24 8.05C52.62 7.70333 52.94 7.34 53.2 6.96C53.46 6.58 53.59 6.21 53.59 5.85C53.59 5.57667 53.5267 5.36333 53.4 5.21C53.2733 5.05667 53.0833 4.98 52.83 4.98C52.5767 4.98 52.3767 5.07667 52.23 5.27C52.09 5.45667 52.02 5.72333 52.02 6.07H50.37C50.3833 5.50333 50.5033 5.03 50.73 4.65C50.9633 4.27 51.2667 3.99 51.64 3.81C52.02 3.63 52.44 3.54 52.9 3.54C53.6933 3.54 54.29 3.74333 54.69 4.15C55.0967 4.55667 55.3 5.08667 55.3 5.74C55.3 6.45333 55.0567 7.11667 54.57 7.73C54.0833 8.33667 53.4633 8.93 52.71 9.51H55.41V10.9H50.39V9.63ZM56.7029 9.7V8.32L59.8629 3.8H61.7729V8.22H62.5929V9.7H61.7729V11H60.0629V9.7H56.7029ZM60.1829 5.68L58.5029 8.22H60.1829V5.68ZM63.7905 5.54C63.7905 5 63.9438 4.58333 64.2505 4.29C64.5638 3.99667 64.9671 3.85 65.4605 3.85C65.9538 3.85 66.3538 3.99667 66.6605 4.29C66.9671 4.58333 67.1205 5 67.1205 5.54C67.1205 6.08 66.9671 6.49667 66.6605 6.79C66.3538 7.08333 65.9538 7.23 65.4605 7.23C64.9671 7.23 64.5638 7.08333 64.2505 6.79C63.9438 6.49667 63.7905 6.08 63.7905 5.54ZM70.5805 3.96L66.7305 11H65.0805L68.9305 3.96H70.5805ZM65.4505 4.85C65.1305 4.85 64.9705 5.08 64.9705 5.54C64.9705 5.99333 65.1305 6.22 65.4505 6.22C65.6038 6.22 65.7238 6.16333 65.8105 6.05C65.8971 5.93667 65.9405 5.76667 65.9405 5.54C65.9405 5.08 65.7771 4.85 65.4505 4.85ZM68.5505 9.42C68.5505 8.88 68.7038 8.46333 69.0105 8.17C69.3171 7.87667 69.7171 7.73 70.2105 7.73C70.7038 7.73 71.1038 7.87667 71.4105 8.17C71.7171 8.46333 71.8705 8.88 71.8705 9.42C71.8705 9.96 71.7171 10.3767 71.4105 10.67C71.1038 10.9633 70.7038 11.11 70.2105 11.11C69.7171 11.11 69.3171 10.9633 69.0105 10.67C68.7038 10.3767 68.5505 9.96 68.5505 9.42ZM70.2005 8.73C70.0471 8.73 69.9271 8.78667 69.8405 8.9C69.7605 9.01333 69.7205 9.18667 69.7205 9.42C69.7205 9.87333 69.8805 10.1 70.2005 10.1C70.3538 10.1 70.4738 10.0433 70.5605 9.93C70.6471 9.81667 70.6905 9.64667 70.6905 9.42C70.6905 9.19333 70.6471 9.02333 70.5605 8.91C70.4738 8.79 70.3538 8.73 70.2005 8.73ZM79.2408 11.07C78.5808 11.07 77.9741 10.9167 77.4208 10.61C76.8741 10.3033 76.4374 9.87667 76.1108 9.33C75.7908 8.77667 75.6308 8.15667 75.6308 7.47C75.6308 6.78333 75.7908 6.16667 76.1108 5.62C76.4374 5.07333 76.8741 4.64667 77.4208 4.34C77.9741 4.03333 78.5808 3.88 79.2408 3.88C79.9008 3.88 80.5041 4.03333 81.0508 4.34C81.6041 4.64667 82.0374 5.07333 82.3508 5.62C82.6708 6.16667 82.8308 6.78333 82.8308 7.47C82.8308 8.15667 82.6708 8.77667 82.3508 9.33C82.0308 9.87667 81.5974 10.3033 81.0508 10.61C80.5041 10.9167 79.9008 11.07 79.2408 11.07ZM79.2408 9.51C79.8008 9.51 80.2474 9.32333 80.5808 8.95C80.9208 8.57667 81.0908 8.08333 81.0908 7.47C81.0908 6.85 80.9208 6.35667 80.5808 5.99C80.2474 5.61667 79.8008 5.43 79.2408 5.43C78.6741 5.43 78.2208 5.61333 77.8808 5.98C77.5474 6.34667 77.3808 6.84333 77.3808 7.47C77.3808 8.09 77.5474 8.58667 77.8808 8.96C78.2208 9.32667 78.6741 9.51 79.2408 9.51ZM87.0821 6.84H86.1621V11H84.4521V6.84H83.8321V5.42H84.4521V5.26C84.4521 4.57333 84.6488 4.05333 85.0421 3.7C85.4354 3.34 86.0121 3.16 86.7721 3.16C86.8988 3.16 86.9921 3.16333 87.0521 3.17V4.62C86.7254 4.6 86.4954 4.64667 86.3621 4.76C86.2288 4.87333 86.1621 5.07667 86.1621 5.37V5.42H87.0821V6.84ZM91.1856 6.84H90.2656V11H88.5556V6.84H87.9356V5.42H88.5556V5.26C88.5556 4.57333 88.7523 4.05333 89.1456 3.7C89.539 3.34 90.1156 3.16 90.8756 3.16C91.0023 3.16 91.0956 3.16333 91.1556 3.17V4.62C90.829 4.6 90.599 4.64667 90.4656 4.76C90.3323 4.87333 90.2656 5.07667 90.2656 5.37V5.42H91.1856V6.84Z"
        fill="#FB7181" />
</svg>
