<svg width="51" height="12" viewBox="0 0 51 12" fill="none" xmlns="http://www.w3.org/2000/svg">
<path d="M7.116 7.552C7.116 7.992 7 8.4 6.768 8.776C6.544 9.144 6.208 9.448 5.76 9.688C5.32 9.92 4.796 10.048 4.188 10.072V11.044H3.42V10.06C2.572 9.988 1.888 9.736 1.368 9.304C0.848 8.864 0.572 8.268 0.54 7.516H2.724C2.772 7.996 3.004 8.304 3.42 8.44V6.544C2.796 6.384 2.296 6.228 1.92 6.076C1.552 5.924 1.228 5.68 0.948 5.344C0.668 5.008 0.528 4.548 0.528 3.964C0.528 3.236 0.796 2.652 1.332 2.212C1.876 1.772 2.572 1.524 3.42 1.468V0.495999H4.188V1.468C5.028 1.532 5.692 1.776 6.18 2.2C6.668 2.624 6.94 3.212 6.996 3.964H4.8C4.752 3.532 4.548 3.252 4.188 3.124V4.984C4.852 5.168 5.364 5.332 5.724 5.476C6.084 5.62 6.404 5.86 6.684 6.196C6.972 6.524 7.116 6.976 7.116 7.552ZM2.7 3.868C2.7 4.068 2.76 4.236 2.88 4.372C3.008 4.508 3.188 4.628 3.42 4.732V3.064C3.196 3.104 3.02 3.192 2.892 3.328C2.764 3.456 2.7 3.636 2.7 3.868ZM4.188 8.476C4.428 8.436 4.616 8.34 4.752 8.188C4.896 8.036 4.968 7.848 4.968 7.624C4.968 7.416 4.9 7.248 4.764 7.12C4.636 6.984 4.444 6.868 4.188 6.772V8.476ZM8.86644 8.356C9.13844 8.14 9.26244 8.04 9.23844 8.056C10.0224 7.408 10.6384 6.876 11.0864 6.46C11.5424 6.044 11.9264 5.608 12.2384 5.152C12.5504 4.696 12.7064 4.252 12.7064 3.82C12.7064 3.492 12.6304 3.236 12.4784 3.052C12.3264 2.868 12.0984 2.776 11.7944 2.776C11.4904 2.776 11.2504 2.892 11.0744 3.124C10.9064 3.348 10.8224 3.668 10.8224 4.084H8.84244C8.85844 3.404 9.00244 2.836 9.27444 2.38C9.55444 1.924 9.91844 1.588 10.3664 1.372C10.8224 1.156 11.3264 1.048 11.8784 1.048C12.8304 1.048 13.5464 1.292 14.0264 1.78C14.5144 2.268 14.7584 2.904 14.7584 3.688C14.7584 4.544 14.4664 5.34 13.8824 6.076C13.2984 6.804 12.5544 7.516 11.6504 8.212H14.8904V9.88H8.86644V8.356ZM18.5019 7.432C18.6219 8.064 18.9899 8.38 19.6059 8.38C20.0299 8.38 20.3299 8.192 20.5059 7.816C20.6819 7.44 20.7699 6.828 20.7699 5.98C20.5939 6.228 20.3539 6.42 20.0499 6.556C19.7459 6.692 19.4059 6.76 19.0299 6.76C18.5179 6.76 18.0619 6.656 17.6619 6.448C17.2619 6.232 16.9459 5.916 16.7139 5.5C16.4899 5.076 16.3779 4.564 16.3779 3.964C16.3779 3.372 16.4979 2.856 16.7379 2.416C16.9859 1.976 17.3339 1.636 17.7819 1.396C18.2379 1.156 18.7739 1.036 19.3899 1.036C20.5739 1.036 21.4019 1.404 21.8739 2.14C22.3459 2.876 22.5819 3.96 22.5819 5.392C22.5819 6.432 22.4859 7.292 22.2939 7.972C22.1099 8.644 21.7939 9.156 21.3459 9.508C20.9059 9.86 20.3019 10.036 19.5339 10.036C18.9259 10.036 18.4059 9.916 17.9739 9.676C17.5499 9.436 17.2219 9.12 16.9899 8.728C16.7659 8.336 16.6379 7.904 16.6059 7.432H18.5019ZM19.4979 5.14C19.8339 5.14 20.1019 5.04 20.3019 4.84C20.5019 4.632 20.6019 4.352 20.6019 4C20.6019 3.616 20.4979 3.32 20.2899 3.112C20.0819 2.904 19.8019 2.8 19.4499 2.8C19.0979 2.8 18.8179 2.908 18.6099 3.124C18.4099 3.332 18.3099 3.62 18.3099 3.988C18.3099 4.332 18.4099 4.612 18.6099 4.828C18.8179 5.036 19.1139 5.14 19.4979 5.14ZM26.3847 7.432C26.5047 8.064 26.8727 8.38 27.4887 8.38C27.9127 8.38 28.2127 8.192 28.3887 7.816C28.5647 7.44 28.6527 6.828 28.6527 5.98C28.4767 6.228 28.2367 6.42 27.9327 6.556C27.6287 6.692 27.2887 6.76 26.9127 6.76C26.4007 6.76 25.9447 6.656 25.5447 6.448C25.1447 6.232 24.8287 5.916 24.5967 5.5C24.3727 5.076 24.2607 4.564 24.2607 3.964C24.2607 3.372 24.3807 2.856 24.6207 2.416C24.8687 1.976 25.2167 1.636 25.6647 1.396C26.1207 1.156 26.6567 1.036 27.2727 1.036C28.4567 1.036 29.2847 1.404 29.7567 2.14C30.2287 2.876 30.4647 3.96 30.4647 5.392C30.4647 6.432 30.3687 7.292 30.1767 7.972C29.9927 8.644 29.6767 9.156 29.2287 9.508C28.7887 9.86 28.1847 10.036 27.4167 10.036C26.8087 10.036 26.2887 9.916 25.8567 9.676C25.4327 9.436 25.1047 9.12 24.8727 8.728C24.6487 8.336 24.5207 7.904 24.4887 7.432H26.3847ZM27.3807 5.14C27.7167 5.14 27.9847 5.04 28.1847 4.84C28.3847 4.632 28.4847 4.352 28.4847 4C28.4847 3.616 28.3807 3.32 28.1727 3.112C27.9647 2.904 27.6847 2.8 27.3327 2.8C26.9807 2.8 26.7007 2.908 26.4927 3.124C26.2927 3.332 26.1927 3.62 26.1927 3.988C26.1927 4.332 26.2927 4.612 26.4927 4.828C26.7007 5.036 26.9967 5.14 27.3807 5.14ZM34.4715 8.104L33.1395 11.548H31.8315L32.5275 8.104H34.4715ZM36.0528 8.44V6.784L39.8448 1.36H42.1368V6.664H43.1208V8.44H42.1368V10H40.0848V8.44H36.0528ZM40.2288 3.616L38.2128 6.664H40.2288V3.616ZM44.6979 3.712C44.7299 2.856 45.0099 2.196 45.5379 1.732C46.0659 1.268 46.7819 1.036 47.6859 1.036C48.2859 1.036 48.7979 1.14 49.2219 1.348C49.6539 1.556 49.9779 1.84 50.1939 2.2C50.4179 2.56 50.5299 2.964 50.5299 3.412C50.5299 3.94 50.3979 4.372 50.1339 4.708C49.8699 5.036 49.5619 5.26 49.2099 5.38V5.428C49.6659 5.58 50.0259 5.832 50.2899 6.184C50.5539 6.536 50.6859 6.988 50.6859 7.54C50.6859 8.036 50.5699 8.476 50.3379 8.86C50.1139 9.236 49.7819 9.532 49.3419 9.748C48.9099 9.964 48.3939 10.072 47.7939 10.072C46.8339 10.072 46.0659 9.836 45.4899 9.364C44.9219 8.892 44.6219 8.18 44.5899 7.228H46.5819C46.5899 7.58 46.6899 7.86 46.8819 8.068C47.0739 8.268 47.3539 8.368 47.7219 8.368C48.0339 8.368 48.2739 8.28 48.4419 8.104C48.6179 7.92 48.7059 7.68 48.7059 7.384C48.7059 7 48.5819 6.724 48.3339 6.556C48.0939 6.38 47.7059 6.292 47.1699 6.292H46.7859V4.624H47.1699C47.5779 4.624 47.9059 4.556 48.1539 4.42C48.4099 4.276 48.5379 4.024 48.5379 3.664C48.5379 3.376 48.4579 3.152 48.2979 2.992C48.1379 2.832 47.9179 2.752 47.6379 2.752C47.3339 2.752 47.1059 2.844 46.9539 3.028C46.8099 3.212 46.7259 3.44 46.7019 3.712H44.6979Z" fill="#40BFFF"/>
</svg>
