<svg width="41" height="10" viewBox="0 0 41 10" fill="none" xmlns="http://www.w3.org/2000/svg">
<path d="M5.27 6.09C5.27 6.41 5.19 6.71667 5.03 7.01C4.87 7.29667 4.63333 7.53667 4.32 7.73C4.01333 7.92333 3.64333 8.03333 3.21 8.06V8.87H2.67V8.06C2.06333 8.00667 1.57 7.81333 1.19 7.48C0.81 7.14 0.616667 6.71 0.61 6.19H1.58C1.60667 6.47 1.71 6.71333 1.89 6.92C2.07667 7.12667 2.33667 7.25667 2.67 7.31V4.81C2.22333 4.69667 1.86333 4.58 1.59 4.46C1.31667 4.34 1.08333 4.15333 0.89 3.9C0.696667 3.64667 0.6 3.30667 0.6 2.88C0.6 2.34 0.786667 1.89333 1.16 1.54C1.54 1.18667 2.04333 0.989999 2.67 0.95V0.12H3.21V0.95C3.77667 0.996666 4.23333 1.18 4.58 1.5C4.92667 1.81333 5.12667 2.22333 5.18 2.73H4.21C4.17667 2.49667 4.07333 2.28667 3.9 2.1C3.72667 1.90667 3.49667 1.78 3.21 1.72V4.16C3.65 4.27333 4.00667 4.39 4.28 4.51C4.56 4.62333 4.79333 4.80667 4.98 5.06C5.17333 5.31333 5.27 5.65667 5.27 6.09ZM1.53 2.83C1.53 3.15667 1.62667 3.40667 1.82 3.58C2.01333 3.75333 2.29667 3.89667 2.67 4.01V1.7C2.32333 1.73333 2.04667 1.84667 1.84 2.04C1.63333 2.22667 1.53 2.49 1.53 2.83ZM3.21 7.32C3.57 7.28 3.85 7.15 4.05 6.93C4.25667 6.71 4.36 6.44667 4.36 6.14C4.36 5.81333 4.26 5.56333 4.06 5.39C3.86 5.21 3.57667 5.06667 3.21 4.96V7.32ZM11.9507 1.56H8.4407V3.84C8.59404 3.62667 8.8207 3.45333 9.1207 3.32C9.4207 3.18 9.74404 3.11 10.0907 3.11C10.644 3.11 11.094 3.22667 11.4407 3.46C11.7874 3.68667 12.034 3.98333 12.1807 4.35C12.334 4.71 12.4107 5.09333 12.4107 5.5C12.4107 5.98 12.3207 6.41 12.1407 6.79C11.9607 7.17 11.684 7.47 11.3107 7.69C10.944 7.91 10.4874 8.02 9.9407 8.02C9.2407 8.02 8.67404 7.84 8.2407 7.48C7.80737 7.12 7.54404 6.64 7.4507 6.04H8.3407C8.42737 6.42 8.6107 6.71667 8.8907 6.93C9.1707 7.14333 9.52404 7.25 9.9507 7.25C10.4774 7.25 10.874 7.09333 11.1407 6.78C11.4074 6.46 11.5407 6.04 11.5407 5.52C11.5407 5 11.4074 4.6 11.1407 4.32C10.874 4.03333 10.4807 3.89 9.9607 3.89C9.60737 3.89 9.29737 3.97667 9.0307 4.15C8.7707 4.31667 8.5807 4.54667 8.4607 4.84H7.6007V0.76H11.9507V1.56ZM14.1 2.59C14.1467 1.97667 14.3833 1.49667 14.81 1.15C15.2367 0.803333 15.79 0.63 16.47 0.63C16.9233 0.63 17.3133 0.713333 17.64 0.88C17.9733 1.04 18.2233 1.26 18.39 1.54C18.5633 1.82 18.65 2.13667 18.65 2.49C18.65 2.90333 18.53 3.26 18.29 3.56C18.0567 3.86 17.75 4.05333 17.37 4.14V4.19C17.8033 4.29667 18.1467 4.50667 18.4 4.82C18.6533 5.13333 18.78 5.54333 18.78 6.05C18.78 6.43 18.6933 6.77333 18.52 7.08C18.3467 7.38 18.0867 7.61667 17.74 7.79C17.3933 7.96333 16.9767 8.05 16.49 8.05C15.7833 8.05 15.2033 7.86667 14.75 7.5C14.2967 7.12667 14.0433 6.6 13.99 5.92H14.87C14.9167 6.32 15.08 6.64667 15.36 6.9C15.64 7.15333 16.0133 7.28 16.48 7.28C16.9467 7.28 17.3 7.16 17.54 6.92C17.7867 6.67333 17.91 6.35667 17.91 5.97C17.91 5.47 17.7433 5.11 17.41 4.89C17.0767 4.67 16.5733 4.56 15.9 4.56H15.67V3.8H15.91C16.5233 3.79333 16.9867 3.69333 17.3 3.5C17.6133 3.3 17.77 2.99333 17.77 2.58C17.77 2.22667 17.6533 1.94333 17.42 1.73C17.1933 1.51667 16.8667 1.41 16.44 1.41C16.0267 1.41 15.6933 1.51667 15.44 1.73C15.1867 1.94333 15.0367 2.23 14.99 2.59H14.1ZM20.2887 6.39V5.7L23.7987 0.84H24.8887V5.6H25.8887V6.39H24.8887V8H23.9887V6.39H20.2887ZM24.0287 1.79L21.3387 5.6H24.0287V1.79ZM28.3877 6.74L27.2677 9.43H26.6577L27.3877 6.74H28.3877ZM29.7602 2.59C29.8068 1.97667 30.0435 1.49667 30.4702 1.15C30.8968 0.803333 31.4502 0.63 32.1302 0.63C32.5835 0.63 32.9735 0.713333 33.3002 0.88C33.6335 1.04 33.8835 1.26 34.0502 1.54C34.2235 1.82 34.3102 2.13667 34.3102 2.49C34.3102 2.90333 34.1902 3.26 33.9502 3.56C33.7168 3.86 33.4102 4.05333 33.0302 4.14V4.19C33.4635 4.29667 33.8068 4.50667 34.0602 4.82C34.3135 5.13333 34.4402 5.54333 34.4402 6.05C34.4402 6.43 34.3535 6.77333 34.1802 7.08C34.0068 7.38 33.7468 7.61667 33.4002 7.79C33.0535 7.96333 32.6368 8.05 32.1502 8.05C31.4435 8.05 30.8635 7.86667 30.4102 7.5C29.9568 7.12667 29.7035 6.6 29.6502 5.92H30.5302C30.5768 6.32 30.7402 6.64667 31.0202 6.9C31.3002 7.15333 31.6735 7.28 32.1402 7.28C32.6068 7.28 32.9602 7.16 33.2002 6.92C33.4468 6.67333 33.5702 6.35667 33.5702 5.97C33.5702 5.47 33.4035 5.11 33.0702 4.89C32.7368 4.67 32.2335 4.56 31.5602 4.56H31.3302V3.8H31.5702C32.1835 3.79333 32.6468 3.69333 32.9602 3.5C33.2735 3.3 33.4302 2.99333 33.4302 2.58C33.4302 2.22667 33.3135 1.94333 33.0802 1.73C32.8535 1.51667 32.5268 1.41 32.1002 1.41C31.6868 1.41 31.3535 1.51667 31.1002 1.73C30.8468 1.94333 30.6968 2.23 30.6502 2.59H29.7602ZM36.1488 2.59C36.1955 1.97667 36.4322 1.49667 36.8588 1.15C37.2855 0.803333 37.8388 0.63 38.5188 0.63C38.9722 0.63 39.3622 0.713333 39.6888 0.88C40.0222 1.04 40.2722 1.26 40.4388 1.54C40.6122 1.82 40.6988 2.13667 40.6988 2.49C40.6988 2.90333 40.5788 3.26 40.3388 3.56C40.1055 3.86 39.7988 4.05333 39.4188 4.14V4.19C39.8522 4.29667 40.1955 4.50667 40.4488 4.82C40.7022 5.13333 40.8288 5.54333 40.8288 6.05C40.8288 6.43 40.7422 6.77333 40.5688 7.08C40.3955 7.38 40.1355 7.61667 39.7888 7.79C39.4422 7.96333 39.0255 8.05 38.5388 8.05C37.8322 8.05 37.2522 7.86667 36.7988 7.5C36.3455 7.12667 36.0922 6.6 36.0388 5.92H36.9188C36.9655 6.32 37.1288 6.64667 37.4088 6.9C37.6888 7.15333 38.0622 7.28 38.5288 7.28C38.9955 7.28 39.3488 7.16 39.5888 6.92C39.8355 6.67333 39.9588 6.35667 39.9588 5.97C39.9588 5.47 39.7922 5.11 39.4588 4.89C39.1255 4.67 38.6222 4.56 37.9488 4.56H37.7188V3.8H37.9588C38.5722 3.79333 39.0355 3.69333 39.3488 3.5C39.6622 3.3 39.8188 2.99333 39.8188 2.58C39.8188 2.22667 39.7022 1.94333 39.4688 1.73C39.2422 1.51667 38.9155 1.41 38.4888 1.41C38.0755 1.41 37.7422 1.51667 37.4888 1.73C37.2355 1.94333 37.0855 2.23 37.0388 2.59H36.1488Z" fill="#9098B1"/>
<path d="M0 4.72H41.4388V5.22H0V4.72Z" fill="#9098B1"/>
</svg>
