<svg width="24" height="24" viewBox="0 0 24 24" fill="none" xmlns="http://www.w3.org/2000/svg">
<path fill-rule="evenodd" clip-rule="evenodd" d="M12 4.00049C10.3971 4.00049 9.09766 5.29993 9.09766 6.90287C9.09766 8.50581 10.3971 9.80525 12 9.80525C13.603 9.80525 14.9024 8.50581 14.9024 6.90287C14.9024 5.29993 13.603 4.00049 12 4.00049ZM7.09766 6.90287C7.09766 4.19536 9.29253 2.00049 12 2.00049C14.7075 2.00049 16.9024 4.19536 16.9024 6.90287C16.9024 9.61038 14.7075 11.8053 12 11.8053C9.29253 11.8053 7.09766 9.61038 7.09766 6.90287Z" fill="#9098B1"/>
<path fill-rule="evenodd" clip-rule="evenodd" d="M9.51784 15.3904C6.47035 15.3904 4 17.8607 4 20.9082V20.9993C4 21.5516 3.55228 21.9993 3 21.9993C2.44772 21.9993 2 21.5516 2 20.9993V20.9082C2 16.7562 5.36578 13.3904 9.51784 13.3904H14.4822C18.6342 13.3904 22 16.7562 22 20.9082V20.9993C22 21.5516 21.5523 21.9993 21 21.9993C20.4477 21.9993 20 21.5516 20 20.9993V20.9082C20 17.8607 17.5296 15.3904 14.4822 15.3904H9.51784Z" fill="#9098B1"/>
</svg>
