<svg width="42" height="9" viewBox="0 0 42 9" fill="none" xmlns="http://www.w3.org/2000/svg">
<path d="M0.39 6.63C0.616667 6.45 0.72 6.36667 0.7 6.38C1.35333 5.84 1.86667 5.39667 2.24 5.05C2.62 4.70333 2.94 4.34 3.2 3.96C3.46 3.58 3.59 3.21 3.59 2.85C3.59 2.57667 3.52667 2.36333 3.4 2.21C3.27333 2.05667 3.08333 1.98 2.83 1.98C2.57667 1.98 2.37667 2.07667 2.23 2.27C2.09 2.45667 2.02 2.72333 2.02 3.07H0.37C0.383333 2.50333 0.503333 2.03 0.73 1.65C0.963333 1.27 1.26667 0.99 1.64 0.81C2.02 0.63 2.44 0.539999 2.9 0.539999C3.69333 0.539999 4.29 0.743333 4.69 1.15C5.09667 1.55667 5.3 2.08667 5.3 2.74C5.3 3.45333 5.05667 4.11667 4.57 4.73C4.08333 5.33667 3.46333 5.93 2.71 6.51H5.41V7.9H0.39V6.63ZM6.70289 6.7V5.32L9.86289 0.8H11.7729V5.22H12.5929V6.7H11.7729V8H10.0629V6.7H6.70289ZM10.1829 2.68L8.50289 5.22H10.1829V2.68ZM13.7905 2.54C13.7905 2 13.9438 1.58333 14.2505 1.29C14.5638 0.996666 14.9671 0.85 15.4605 0.85C15.9538 0.85 16.3538 0.996666 16.6605 1.29C16.9671 1.58333 17.1205 2 17.1205 2.54C17.1205 3.08 16.9671 3.49667 16.6605 3.79C16.3538 4.08333 15.9538 4.23 15.4605 4.23C14.9671 4.23 14.5638 4.08333 14.2505 3.79C13.9438 3.49667 13.7905 3.08 13.7905 2.54ZM20.5805 0.959999L16.7305 8H15.0805L18.9305 0.959999H20.5805ZM15.4505 1.85C15.1305 1.85 14.9705 2.08 14.9705 2.54C14.9705 2.99333 15.1305 3.22 15.4505 3.22C15.6038 3.22 15.7238 3.16333 15.8105 3.05C15.8971 2.93667 15.9405 2.76667 15.9405 2.54C15.9405 2.08 15.7771 1.85 15.4505 1.85ZM18.5505 6.42C18.5505 5.88 18.7038 5.46333 19.0105 5.17C19.3171 4.87667 19.7171 4.73 20.2105 4.73C20.7038 4.73 21.1038 4.87667 21.4105 5.17C21.7171 5.46333 21.8705 5.88 21.8705 6.42C21.8705 6.96 21.7171 7.37667 21.4105 7.67C21.1038 7.96333 20.7038 8.11 20.2105 8.11C19.7171 8.11 19.3171 7.96333 19.0105 7.67C18.7038 7.37667 18.5505 6.96 18.5505 6.42ZM20.2005 5.73C20.0471 5.73 19.9271 5.78667 19.8405 5.9C19.7605 6.01333 19.7205 6.18667 19.7205 6.42C19.7205 6.87333 19.8805 7.1 20.2005 7.1C20.3538 7.1 20.4738 7.04333 20.5605 6.93C20.6471 6.81667 20.6905 6.64667 20.6905 6.42C20.6905 6.19333 20.6471 6.02333 20.5605 5.91C20.4738 5.79 20.3538 5.73 20.2005 5.73ZM29.2408 8.07C28.5808 8.07 27.9741 7.91667 27.4208 7.61C26.8741 7.30333 26.4374 6.87667 26.1108 6.33C25.7908 5.77667 25.6308 5.15667 25.6308 4.47C25.6308 3.78333 25.7908 3.16667 26.1108 2.62C26.4374 2.07333 26.8741 1.64667 27.4208 1.34C27.9741 1.03333 28.5808 0.88 29.2408 0.88C29.9008 0.88 30.5041 1.03333 31.0508 1.34C31.6041 1.64667 32.0374 2.07333 32.3508 2.62C32.6708 3.16667 32.8308 3.78333 32.8308 4.47C32.8308 5.15667 32.6708 5.77667 32.3508 6.33C32.0308 6.87667 31.5974 7.30333 31.0508 7.61C30.5041 7.91667 29.9008 8.07 29.2408 8.07ZM29.2408 6.51C29.8008 6.51 30.2474 6.32333 30.5808 5.95C30.9208 5.57667 31.0908 5.08333 31.0908 4.47C31.0908 3.85 30.9208 3.35667 30.5808 2.99C30.2474 2.61667 29.8008 2.43 29.2408 2.43C28.6741 2.43 28.2208 2.61333 27.8808 2.98C27.5474 3.34667 27.3808 3.84333 27.3808 4.47C27.3808 5.09 27.5474 5.58667 27.8808 5.96C28.2208 6.32667 28.6741 6.51 29.2408 6.51ZM37.0821 3.84H36.1621V8H34.4521V3.84H33.8321V2.42H34.4521V2.26C34.4521 1.57333 34.6488 1.05333 35.0421 0.7C35.4354 0.34 36.0121 0.16 36.7721 0.16C36.8988 0.16 36.9921 0.163333 37.0521 0.169999V1.62C36.7254 1.6 36.4954 1.64667 36.3621 1.76C36.2288 1.87333 36.1621 2.07667 36.1621 2.37V2.42H37.0821V3.84ZM41.1856 3.84H40.2656V8H38.5556V3.84H37.9356V2.42H38.5556V2.26C38.5556 1.57333 38.7523 1.05333 39.1456 0.7C39.539 0.34 40.1156 0.16 40.8756 0.16C41.0023 0.16 41.0956 0.163333 41.1556 0.169999V1.62C40.829 1.6 40.599 1.64667 40.4656 1.76C40.3323 1.87333 40.2656 2.07667 40.2656 2.37V2.42H41.1856V3.84Z" fill="#FB7181"/>
</svg>
