<svg width="32" height="32" viewBox="0 0 32 32" fill="none" xmlns="http://www.w3.org/2000/svg">
<path d="M27.2141 8.35746C27.9798 7.49599 28.3627 6.44308 28.3627 5.29445C28.3627 2.80576 26.3526 0.699951 23.7682 0.699951H4.91158C3.85867 0.699951 2.9972 1.08283 2.32717 1.75286C1.65714 2.42289 1.27426 3.28436 1.27426 4.33727C1.27426 6.34736 2.90148 7.97458 4.91158 7.97458H8.26174C11.4205 7.97458 13.0477 11.7076 10.9419 14.1006L1.84858 24.3425C1.08283 25.204 0.699951 26.2569 0.699951 27.4055C0.699951 29.8942 2.71005 32 5.29446 32H22.811C22.0452 31.0428 21.5667 29.7027 21.5667 28.3627C21.5667 27.0226 22.0452 25.6826 22.811 24.7254H20.8966C17.7379 24.7254 16.015 20.9923 18.1208 18.5994L27.2141 8.35746Z" fill="white"/>
<path d="M28.3627 32C30.3715 32 32 30.3715 32 28.3627C32 26.3539 30.3715 24.7254 28.3627 24.7254C26.3538 24.7254 24.7253 26.3539 24.7253 28.3627C24.7253 30.3715 26.3538 32 28.3627 32Z" fill="white"/>
</svg>
